# xmcd CD database file
#
# Track frame offsets:
#	150
#	26733
#	52018
#	76671
#	99319
#	121625
#	142972
#	162166
#	181003
#	203199
#	223918
#	242297
#	260277
#
# Disc length: 3699 seconds
#
# Revision: 0
# Processed by: cddbd v1.5.2PL0 Copyright (c) Steve Scherf et al.
# Submitted via: CDex 1.70beta2
#
DISCID=a00e710d
DTITLE=Varios - Smooth Jazz Café CD 1
DYEAR=2008
DGENRE=Jazz
TTITLE0=Winelight
TTITLE1=In the name of love
TTITLE2=Just the two of us
TTITLE3=East river drive
TTITLE4=I want to know what love is
TTITLE5=Come morning
TTITLE6=Fly me to the moon
TTITLE7=Mornin'
TTITLE8=Forever in love
TTITLE9=The power of Love
TTITLE10=Don't make my brown eyes blue
TTITLE11=La solitudine
TTITLE12=Sorry seems to be that hardest word
EXTD=YEAR: 2008
EXTT0=
EXTT1=
EXTT2=
EXTT3=
EXTT4=
EXTT5=
EXTT6=
EXTT7=
EXTT8=
EXTT9=
EXTT10=
EXTT11=
EXTT12=
PLAYORDER=
